# xmcd
#
# Track frame offsets:
# 150
# 26576
# 38414
# 56778
# 73593
# 87586
# 97377
# 107707
# 120345
# 133694
# 151448
# 164616
# 180139
# 192013
# 206513
# 220333
# 237088
# 255625
# 268401
# 286182
# 309607
#
# Disc length: 4272 seconds
#
# Revision: 0
# Processed by: cddbd v1.4PL0 Copyright (c) Steve Scherf et al.
# Submitted via: Audion 3.0.2 (http://www.panic.com/audion/)
#
DISCID=3110ae15
DTITLE=Various Artist - Blues in All Natural - The Best of Acoustic Blues Guitarists
DYEAR=1900
DGENRE=
TTITLE0=John Henry/Furry Lewis
TTITLE1=Alberta/Snooks Eaglin
TTITLE2=I Got Mine/Pink Anderson
TTITLE3=Meet Me Down the Bottom/Brownie McGhee and Sonny Terry
TTITLE4=See What You Done Done/Baby Tate
TTITLE5=Trucking Them Blues Away/Baby Tate
TTITLE6=So Sweet/Doug Quattlebaum
TTITLE7=Broke Down Engine Blues/Blind Willie McTell
TTITLE8=Maple Leaf Rag/Rev. Gary Davis
TTITLE9=Samson and Delilah/Rev. Gary Davis
TTITLE10=Brownsville Blues/Memphis Willie B.
TTITLE11=Big Road Blues/K.C. Douglas
TTITLE12=Boogy Woogy Rag/Smokey Babe
TTITLE13=Ocean Blues/Smokey Babe
TTITLE14=San Francisco Bay Blues/Jesse Fuller
TTITLE15=Mean Old Frisco/Lightnin' Hopkins
TTITLE16=Buddy Brown's Blues/Lightnin' Hopkins
TTITLE17=I'v Grown so Ugly/Robert Pete Williams
TTITLE18="A" Blues/Scrapper Blackwell
TTITLE19=Blues Before Sunrise/Scrapper Blackwell
TTITLE20=New Orleans Blues/Lonnie Johnson
EXTD=
EXTT0=
EXTT1=
EXTT2=
EXTT3=
EXTT4=
EXTT5=
EXTT6=
EXTT7=
EXTT8=
EXTT9=
EXTT10=
EXTT11=
EXTT12=
EXTT13=
EXTT14=
EXTT15=
EXTT16=
EXTT17=
EXTT18=
EXTT19=
EXTT20=
PLAYORDER=
